<svg
   width="77.048286mm"
   height="46.991508mm"
   viewBox="0 0 77.048286 46.991509"
   version="1.1"
   id="svg7497"
   inkscape:version="1.1 (c68e22c387, 2021-05-23)"
   sodipodi:docname="batz.defi-logo.svg"
   inkscape:export-filename="\\wsl.localhost\Ubuntu\work\code\batz.defi\public\batz.defi-logo.png"
   inkscape:export-xdpi="74.158302"
   inkscape:export-ydpi="74.158302"
   xmlns:inkscape="http://www.inkscape.org/namespaces/inkscape"
   xmlns:sodipodi="http://sodipodi.sourceforge.net/DTD/sodipodi-0.dtd"
   xmlns="http://www.w3.org/2000/svg"
   xmlns:svg="http://www.w3.org/2000/svg">
  <sodipodi:namedview
     id="namedview7499"
     pagecolor="#ffffff"
     bordercolor="#666666"
     borderopacity="1.0"
     inkscape:pageshadow="2"
     inkscape:pageopacity="0.0"
     inkscape:pagecheckerboard="0"
     inkscape:document-units="px"
     showgrid="false"
     inkscape:zoom="1.0074671"
     inkscape:cx="-110.1773"
     inkscape:cy="373.2132"
     inkscape:window-width="1920"
     inkscape:window-height="1094"
     inkscape:window-x="-11"
     inkscape:window-y="-11"
     inkscape:window-maximized="1"
     inkscape:current-layer="layer1"
     fit-margin-top="0"
     fit-margin-left="0"
     fit-margin-right="0"
     fit-margin-bottom="0" />
  <defs
     id="defs7494" />
  <g
     inkscape:label="Layer 1"
     inkscape:groupmode="layer"
     id="layer1"
     transform="translate(-77.543371,-46.337091)">
    <path
       style="fill:#b00080;fill-opacity:1;fill-rule:nonzero;stroke:none;stroke-width:8.33631;stroke-linecap:butt;stroke-linejoin:round;stroke-miterlimit:4;stroke-dasharray:8.33631, 8.33631;stroke-dashoffset:0;stroke-opacity:1"
       id="path6372"
       d="m 81.420571,51.489595 c 0.02188,1.012416 0.08114,2.700891 0.01635,3.72774 -0.0046,0.07467 -0.24141,1.700826 -0.252765,2.006132 -0.01453,0.390284 0.05332,1.88275 0.06661,2.216994 0.05184,0.759522 -0.02688,1.520476 -9.1e-5,2.279998 0.01614,0.455709 0.08116,0.908814 0.09747,1.364503 0.03182,0.888735 -0.03104,1.785683 -0.06425,2.673894 -0.0065,0.311299 -0.02591,0.622619 -0.01917,0.933919 0.0075,0.342498 0.05479,0.683361 0.06173,1.025859 0.0221,1.091546 -0.06946,2.171993 -0.0034,3.262813 0.01372,0.358077 0.04399,0.715891 0.04107,1.074191 -0.0026,0.32819 -0.02543,0.656299 -0.05782,0.982875 -0.03368,0.339673 -0.218186,0.802062 -0.140918,1.145589 0.01594,0.32589 0.15113,0.758532 0.03905,1.081193 -0.01352,0.03915 -0.150322,0.06236 -0.108832,0.06054 3.842307,-0.157809 4.631229,0.487654 3.346084,-0.41434 -0.260268,-0.17476 -0.520536,-0.349359 -0.780805,-0.524059 1.4e-5,-0.150746 -1.33202,-0.150746 -1.332034,-1.01e-4 v 0 c -0.267817,0.174155 -0.535636,0.348431 -0.803453,0.522647 -1.198158,0.941224 -0.459352,0.265894 3.31746,0.42671 0.03511,0.0016 -0.09329,-0.137225 -0.0991,-0.356645 -0.0038,-0.143481 0.04288,-0.284076 0.05955,-0.426709 0.01493,-0.128548 0.02367,-0.257883 0.0355,-0.386814 -0.02165,-0.203315 -0.09257,-0.380154 -0.122131,-0.581997 -0.125117,-0.854166 -0.08782,-1.733719 -0.03215,-2.590408 0.04424,-1.736565 -0.167253,-3.477025 -0.04343,-5.21573 0.05491,-0.907341 0.07759,-0.695207 -0.02484,-1.663694 -0.03972,-0.375573 -0.121142,-0.746909 -0.142876,-1.123935 -0.06819,-1.183507 0.01574,-2.385015 -0.0091,-3.569814 0.01271,-0.692281 0.05101,-1.384037 0.05499,-2.076419 0.0057,-0.981423 -0.07957,-0.931921 -0.104211,-2.095813 -0.02991,-1.412471 0.03628,-2.341567 0.100256,-3.75918 0,-0.350147 -3.095041,-0.350147 -3.095041,0 z"
       inkscape:export-filename="C:\Users\damiano\OneDrive\Desktop\batz.defi-logo.png"
       inkscape:export-xdpi="74.158302"
       inkscape:export-ydpi="74.158302" />
    <path
       style="fill:#b00080;fill-opacity:1;fill-rule:nonzero;stroke:none;stroke-width:8.33631;stroke-linecap:butt;stroke-linejoin:round;stroke-miterlimit:4;stroke-dasharray:8.33631, 8.33631;stroke-dashoffset:0;stroke-opacity:1"
       id="path6376"
       d="m 80.991508,51.454744 c 1.298334,-0.423683 1.718992,-0.667137 3.066498,-0.718132 0.391897,-0.01413 0.781735,0.06417 1.172434,0.09808 0.687343,0.05973 1.13971,0.07366 1.821731,0.307949 0.285857,0.09828 0.543445,0.264825 0.815169,0.397227 0.206734,0.131777 0.428861,0.241981 0.620199,0.395229 0.143723,0.115027 0.249373,0.271036 0.37718,0.403599 0.175386,0.181824 0.75177,0.73803 0.904752,0.965925 0.16354,0.243615 0.254684,0.52975 0.407143,0.780468 0.206698,1.048724 0.533324,2.305102 0.150201,3.339033 -0.177787,-0.03511 0.140232,-0.536671 -0.01231,-0.484001 -0.231889,0.08011 -0.36484,0.328069 -0.547432,0.491912 -0.318777,0.286034 -0.616549,0.597434 -0.956672,0.857738 -1.439349,1.101536 -1.475595,1.001361 -3.134134,1.745102 -0.552256,0.186061 -1.085639,0.44243 -1.65677,0.558325 -0.592882,0.120274 -1.204634,0.169715 -1.809095,0.144893 -0.978458,-0.03996 -0.0678,-0.430846 -0.0099,-0.262503 1.071303,3.118867 1.418172,2.45847 0.153813,3.703729 -0.284363,0.02179 -0.571384,0.10978 -0.853091,0.06538 -1.749888,-0.276206 -1.218168,-1.870865 -0.956682,-3.709925 0.05685,-0.39987 1.670159,-0.771973 1.785856,-0.454599 0.476058,1.30584 0.275098,2.766199 0.412646,4.149308 1.733256,-0.285651 3.473657,-0.358037 5.223262,-0.162854 0.918729,0.102515 1.305892,0.186061 1.954475,0.647521 0.164953,0.118256 0.324699,0.244281 0.494863,0.35501 0.598166,0.389195 1.261085,0.672484 1.858193,1.063294 0.08334,0.05449 0.954641,0.647642 1.035683,0.996477 0.01534,0.06619 -0.1232,-0.05731 -0.18481,-0.08597 -0.05178,-0.107762 -0.05687,-0.255461 -0.155367,-0.323185 -0.05356,-0.03693 -0.03978,0.126731 -0.03598,0.191711 0.01231,0.210238 0.06238,0.416701 0.08369,0.626212 0.10425,1.025435 0.169594,2.057813 0.237538,3.086034 0.695121,-1.460319 -0.317452,1.590359 -0.251973,1.190166 0.05604,-0.342478 0.06145,-0.722329 0.257315,-1.008807 0.261721,-0.382798 0.899076,-0.471248 1.053543,-0.908492 0.109558,-0.310129 -0.623883,0.235705 -0.886041,0.434359 -0.308763,0.233989 -0.533231,0.562118 -0.799848,0.843188 -0.792875,0.941264 -1.56419,1.448029 -2.661552,2.005426 -0.541961,0.275298 -1.066506,0.599513 -1.644087,0.789025 -0.574423,0.188483 -2.197808,0.345585 -2.873559,0.421564 -0.203211,-0.07447 -0.406421,-0.14893 -0.609631,-0.223476 0.02734,-0.01211 0.111737,-0.0331 0.08207,-0.03491 -2.029404,-0.127136 -4.097873,0.1681 -6.100913,-0.229732 -2.086996,0.645181 -1.563771,0.240044 1.194681,4.649333 0.137104,0.219156 0.477929,-0.221781 0.663181,-0.402111 0.269405,-0.262221 0.649959,-0.527207 0.676831,-0.902215 0.03336,-0.465638 -0.345977,-0.867203 -0.518966,-1.300815 0.06088,-0.15236 -1.285957,-0.690606 -1.346851,-0.538225 v 0 c -0.264932,-0.194941 -0.690235,-0.272796 -0.794794,-0.58462 -0.07931,-0.236532 0.267209,-0.422028 0.383183,-0.6429 0.03622,-0.06902 0.04765,-0.296891 0.07128,-0.222628 1.463267,4.598377 2.719657,3.996382 0.639932,4.615994 0.33846,-0.102111 0.702105,-0.234574 1.061578,-0.232798 1.960695,0.01009 3.918679,0.651456 5.871246,0.213829 0.578572,-0.125319 1.166373,-0.213648 1.73572,-0.375755 2.812304,-0.800709 5.53685,-2.114459 7.629297,-4.182948 -0.09749,0.150746 -0.62517,0.346595 -0.483866,0.235987 0.448,-0.350691 1.066143,-0.496977 1.426428,-0.937289 0.640331,-0.782587 0.289809,-1.863296 0.275064,-2.737805 -0.03077,-1.0416 -0.01836,-2.080233 -0.0712,-3.119634 -0.01655,-0.326152 0.05025,-0.654524 0.01857,-0.979546 -0.034,-0.347805 -0.124007,-0.687821 -0.186021,-1.031711 -0.201338,-0.308212 -0.372125,-0.638663 -0.603989,-0.924596 -0.714041,-0.880562 -0.798634,-0.733751 -1.72392,-1.377358 -0.381985,-0.265692 -0.737146,-0.568677 -1.119572,-0.833744 -1.454689,-1.008242 0.304323,0.382395 -1.209306,-0.857839 -0.336288,-0.15902 -0.65818,-0.352911 -1.008865,-0.476959 -0.976846,-0.345525 -1.646485,-0.299796 -2.719576,-0.34831 -2.275025,-0.102918 -4.551202,-0.188482 -6.814614,-0.462509 -0.207403,1.408072 -0.835193,2.816972 -0.622215,4.224216 0.07446,0.492114 2.156085,-0.26325 2.204402,-0.467797 0.393167,-1.66442 0.900313,-3.672792 -1.008468,-3.970793 -0.485909,-0.07588 -0.981393,0.06579 -1.47209,0.09848 -2.013403,0.951334 -2.518932,0.647703 -1.059094,4.189386 0.159161,0.386127 0.801452,0.273239 1.218726,0.290695 1.091469,0.04561 3.560564,-0.300725 4.560628,-0.572108 0.702476,-0.190703 1.360069,-0.519075 2.040103,-0.778612 1.605769,-0.86131 2.144136,-1.120969 3.712235,-2.08203 1.118937,-0.685763 2.269913,-1.371324 2.777043,-2.656983 0.09016,-0.228561 0.04567,-0.489268 0.06849,-0.733913 0.05346,-1.207905 0.01453,0.190098 -0.05021,-1.503443 -0.01312,-0.342054 0.01998,-0.685218 -4.68e-4,-1.026909 -0.05564,-0.926028 -0.352939,-1.779307 -0.566074,-2.674883 -0.450075,-0.757883 -0.922567,-1.36902 -1.521394,-2.016299 -0.207115,-0.223879 -0.394117,-0.468745 -0.623989,-0.669175 -0.467105,-0.407296 -1.451093,-0.990584 -1.938119,-1.295951 -0.445835,-0.207755 -0.869473,-0.471994 -1.337502,-0.623245 -0.466346,-0.150746 -0.957326,-0.2196 -1.444199,-0.275681 -0.726555,-0.08375 -1.458066,-0.145701 -2.189422,-0.142876 -1.769768,0.0061 -3.450809,0.630954 -5.152874,1.019584 -0.336957,0.173146 1.193879,3.151478 1.530834,2.978292 z"
       inkscape:export-filename="C:\Users\damiano\OneDrive\Desktop\batz.defi-logo.png"
       inkscape:export-xdpi="74.158302"
       inkscape:export-ydpi="74.158302" />
    <path
       style="fill:#b00080;fill-opacity:1;fill-rule:nonzero;stroke:none;stroke-width:8.33631;stroke-linecap:butt;stroke-linejoin:round;stroke-miterlimit:4;stroke-dasharray:8.33631, 8.33631;stroke-dashoffset:0;stroke-opacity:1"
       id="path6378"
       d="m 103.22128,77.017379 c -0.19603,-2.544378 -0.0926,-0.655049 -0.12066,-3.179307 -0.008,-0.745072 -0.0843,-1.490831 -0.0451,-2.234914 0.0616,-1.167404 0.42434,-2.869844 0.56927,-4.051253 0.1189,-0.969173 0.19781,-1.942806 0.29672,-2.91422 0.30018,-2.409897 0.55625,-4.887115 1.30311,-7.215645 0.0618,-0.192519 0.20423,-0.351539 0.27294,-0.541677 0.14859,-0.411151 0.17654,-0.856346 0.26432,-1.28463 0.40217,-1.969525 0.88695,-3.985763 1.96715,-5.707274 0.83097,-1.718181 1.98017,0.09384 -3.92154,-1.897926 -0.0141,-0.004 -0.0101,0.02946 -0.007,0.04399 0.15745,0.779238 0.32515,1.556356 0.48772,2.334544 0.90564,1.339743 1.54755,2.955646 2.20275,4.421958 1.07123,2.397366 1.49559,3.191072 2.18825,5.630816 0.1685,0.593539 0.25979,1.206351 0.3897,1.809516 0.14909,1.871329 1.0083,3.547999 1.56215,5.311162 0.18461,0.587707 0.31656,1.190772 0.48824,1.782374 0.18794,0.647642 0.39366,1.289978 0.59049,1.934976 0.27019,0.755768 0.56183,1.504211 0.81055,2.267325 0.20418,0.626433 0.37435,1.263561 0.5475,1.899277 0.10381,0.381123 0.23067,0.759159 0.28322,1.150634 0.0163,0.121687 -0.19289,0.408669 -0.0806,0.359227 4.56981,-2.011035 5.02975,-1.116508 3.19448,-2.822238 -3.91778,2.102876 -3.46265,0.519256 -3.38807,2.520585 0.0153,0.410747 0.059,0.600926 0.13964,1.017909 0.02,0.103726 -0.052,-0.204991 -0.078,-0.307466 -0.20594,-1.433196 -0.15153,-0.304357 3.31394,-0.716073 -0.0184,-0.24521 -2.18571,-0.08234 -2.16729,0.162854 v 0 c 3.53701,0.108166 3.57061,1.227681 3.34766,-0.287083 -0.0322,-0.150343 -0.0147,-0.320825 -0.0967,-0.450785 -0.0334,-0.05307 0.12146,0.35509 -0.0427,0.434519 -1.09532,0.530194 -2.22188,0.993229 -3.33281,1.489843 -1.81179,-1.699495 -0.72394,-0.287427 3.39605,-2.526922 0.0852,-0.04621 -0.1538,-0.123301 -0.20689,-0.204345 -0.20531,-0.313499 -0.40519,-0.633113 -0.56389,-0.972604 -0.79186,-1.693884 -0.82228,-2.141662 -1.34451,-4.02972 -0.37372,-1.234986 -0.77112,-2.46287 -1.1323,-3.70159 -0.52038,-1.784755 -0.88595,-3.618468 -1.57861,-5.349584 -0.94504,-2.221132 -0.82646,-1.872156 -1.77948,-4.490898 -0.38361,-1.054111 -0.73019,-2.121542 -1.12073,-3.173111 -0.29617,-0.79746 -0.64581,-1.574458 -0.93908,-2.373004 -0.44787,-1.219488 -0.75505,-2.488337 -1.27131,-3.684235 0.10161,0.709011 0.17946,1.421835 0.3048,2.127052 0.007,0.03915 0.0904,-0.0892 0.0544,-0.105946 -4.40053,-2.065926 -3.57475,-3.039337 -4.34582,-0.980596 -0.14519,0.500953 -0.0929,0.231709 -0.13904,0.810961 -0.41587,1.823401 -1.21404,3.546966 -1.77807,5.324073 -0.003,0.01009 -0.41695,1.501668 -0.42788,1.710936 -0.0373,0.713067 0.63416,1.400646 0.0579,2.141319 -0.15939,2.546537 -0.31517,2.964247 -0.77887,5.700619 -0.18409,0.969799 -0.39857,1.93431 -0.55225,2.909397 -0.102914,0.65305 -0.392752,3.781826 -0.447356,4.317892 -0.08332,0.817964 -0.220744,1.631588 -0.260239,2.452841 -0.05233,1.087994 0.203138,2.177361 0.06716,3.26707 0.01473,0.435186 3.861355,0.30456 3.846575,-0.130565 z"
       inkscape:export-filename="C:\Users\damiano\OneDrive\Desktop\batz.defi-logo.png"
       inkscape:export-xdpi="74.158302"
       inkscape:export-ydpi="74.158302" />
    <path
       style="fill:#b00080;fill-opacity:1;fill-rule:nonzero;stroke:none;stroke-width:8.33631;stroke-linecap:butt;stroke-linejoin:round;stroke-miterlimit:4;stroke-dasharray:8.33631, 8.33631;stroke-dashoffset:0;stroke-opacity:1"
       id="path6380"
       d="m 104.13165,68.520413 c 1.41645,-0.213809 2.82962,-0.04036 4.24417,0.01816 0.25336,0.01009 0.50822,-0.03653 0.76063,-0.01211 0.0348,0.004 0.0356,0.06034 0.0533,0.09041 0.17373,0.01413 0.34745,0.02825 0.52117,0.04238 1.04122,0.05832 2.08646,-0.05973 3.11987,0.09606 -1.50367,0.06801 -0.61978,0.225796 -0.42721,-2.7059 -0.0765,0.0224 0.12236,0.698638 0.19886,0.676137 v 0 c 0.14972,-0.922295 0.31274,-1.842531 0.44915,-2.766884 0.004,-0.02361 -0.008,-0.06922 -0.0313,-0.06437 -0.0437,0.01009 -0.0654,0.06074 -0.0981,0.09101 -0.28845,-0.01615 -0.57691,-0.0339 -0.86536,-0.05085 -0.1299,-5.45e-4 -0.52151,0.05509 -0.6043,0.130969 -0.049,0.045 0.26586,0.01211 0.19945,0.0081 -0.54036,-0.0335 -0.55514,-0.03027 -1.11007,-0.04964 -1.97716,0.119265 1.90906,-0.102516 -2.15934,0.02967 -1.63791,0.05327 -3.25703,0.565146 -4.91013,0.304075 -0.47092,0.07467 0.18834,4.23695 0.65925,4.162364 z"
       inkscape:export-filename="C:\Users\damiano\OneDrive\Desktop\batz.defi-logo.png"
       inkscape:export-xdpi="74.158302"
       inkscape:export-ydpi="74.158302" />
    <path
       style="fill:#b00080;fill-opacity:1;fill-rule:nonzero;stroke:none;stroke-width:8.33631;stroke-linecap:butt;stroke-linejoin:round;stroke-miterlimit:4;stroke-dasharray:8.33631, 8.33631;stroke-dashoffset:0;stroke-opacity:1"
       id="path6386"
       d="m 133.51987,53.127677 c 1.81176,-0.415147 3.69071,-0.81419 5.55615,-0.503697 0.10171,0.01614 0.16447,0.138638 0.26569,0.158011 1.34604,0.127538 0.73627,0.022 1.83628,0.273582 0.10836,0.01816 0.2222,0.01816 0.32522,0.05691 0.0319,0.01211 0.0305,0.06256 0.0549,0.08597 0.16164,0.155387 0.40566,0.192115 0.61471,0.273078 0.35943,0.139445 0.72929,0.250234 1.09245,0.379529 0.98169,0.106349 0.41737,0.104937 0.45135,0.01413 0.51974,-1.372918 1.14551,-2.703414 1.69982,-4.062751 0.008,-0.01816 -0.0335,0.02119 -0.0527,0.02361 -0.52467,0.06458 -1.05066,0.118054 -1.57599,0.177182 -0.42445,0.756837 -0.84888,1.513695 -1.27333,2.270529 -0.004,0.02018 -0.0141,0.07931 -0.0101,0.05933 0.0202,-0.195747 0.0406,-0.391209 0.0628,-0.586593 0.006,-0.05146 0.044,-0.200793 0.0216,-0.153975 -1.44403,3.018427 0.72645,-1.141351 -1.30723,2.660854 -0.40948,0.658116 -0.78864,1.336089 -1.22845,1.974308 -1.92666,2.795782 -0.36155,0.08112 -2.14396,2.927539 -0.79276,1.266044 -1.42638,2.637307 -2.16691,3.934691 -0.67559,1.303882 -1.53971,2.515924 -2.12049,3.869933 -0.28795,0.671334 -0.44015,1.359317 -0.78154,2.008332 -0.25794,0.486423 -0.54055,0.965218 -0.76985,1.465949 -0.0979,0.213748 -0.15519,0.444912 -0.25778,0.656441 -0.12613,0.260062 -0.30243,0.493123 -0.43646,0.749149 -0.23575,0.80087 -0.61263,1.568726 -1.03773,2.285264 -1.25198,1.099134 -0.25283,0.146104 3.95915,1.808669 0.0182,0.0081 0.0325,-0.06882 0.0371,-0.04884 0.0101,0.04278 0.0228,0.146306 -0.0182,0.130364 -1.39631,-0.542444 -2.64348,-1.704035 -4.14085,-1.74605 -0.54313,-0.01614 0.004,1.086682 0.006,1.630034 0.94847,0.449937 1.84203,1.041196 2.84543,1.349852 0.33166,0.102112 0.68294,-0.131776 1.02895,-0.158011 0.55041,-0.04197 1.1046,-0.0081 1.65534,-0.04601 0.78908,-0.05307 1.57256,-0.176173 2.36199,-0.22398 2.0682,-0.125117 2.72761,-0.07547 4.68819,-0.03289 0.83345,-0.752519 0.4074,0.378903 0.30097,0.289283 -0.4754,-0.400274 -0.755,-1.115399 -1.35372,-1.281946 -0.44173,-0.122897 0.4391,0.831322 0.79088,1.125388 1.33266,1.113946 1.67227,0.199986 3.03477,-0.637855 0.28713,-0.310169 0.57423,-0.620339 0.86135,-0.930508 0.13158,-0.06841 -0.47286,-1.230426 -0.60433,-1.162056 v 0 c -0.27851,-0.08677 -0.55704,-0.173549 -0.83554,-0.260304 -0.0359,-0.312591 -0.34389,-0.729978 -0.10756,-0.937773 0.37932,-0.333619 1.49749,1.555811 1.30122,1.42129 -0.57776,-0.396016 -0.84513,-1.144559 -1.41145,-1.55678 -0.70382,-0.512314 -2.12299,0.877152 -2.60859,0.125723 -2.37288,0.07648 -4.74694,0.09364 -7.1212,0.09162 -0.57988,-4.44e-4 -1.1603,0.0061 -1.73945,-0.02361 -0.39973,-0.02018 -1.45812,-0.424147 -1.19435,-0.123099 0.59718,0.681444 1.54877,0.94084 2.32317,1.41124 -0.0182,0.50735 0.44907,1.580008 -0.0553,1.52201 -1.48298,-0.170523 -2.64354,-1.39324 -4.01198,-1.989605 -0.0676,-0.02946 -0.0462,0.140656 -0.0777,0.207332 -0.0327,0.06942 -0.18082,0.161441 -0.11422,0.199783 3.94954,2.273096 3.39838,3.380201 4.06273,1.818719 0.32361,-0.582037 0.57225,-1.207279 0.90157,-1.783746 0.09,-0.157608 0.2239,-0.287951 0.30807,-0.448646 0.12714,-0.242546 0.1336,-0.351095 0.1677,-0.5734 0.32589,-1.057583 0.92385,-1.961231 1.4085,-2.948001 0.19716,-0.610088 0.30857,-1.240274 0.50154,-1.84903 0.41446,-1.307534 1.11788,-2.484119 1.82204,-3.652512 1.63609,-2.765371 -0.1009,0.232153 1.38519,-2.518769 1.16171,-2.150339 2.49958,-4.212935 3.95865,-6.171442 0.36253,-0.501316 0.71228,-1.012137 1.08761,-1.503948 0.24363,-0.319231 0.53818,-0.598847 0.76836,-0.927905 0.16769,-0.239721 0.32256,-0.494838 0.41983,-0.770742 0.3122,-0.885446 0.26991,-3.617011 -1.15383,1.182438 -0.50303,0.05166 -1.008,0.08677 -1.50905,0.154782 -0.0696,0.01009 0.17577,0.08334 0.20993,0.02179 0.73598,-1.322649 1.52906,-2.632561 2.03631,-4.058634 0.0214,-0.05994 -1.33468,-0.665643 -1.55226,-0.688184 -0.27389,-0.07426 -0.13339,-0.0674 -0.42191,-0.01413 -0.0836,-0.01816 -0.14368,-0.09283 -0.21655,-0.137427 -0.17476,-0.106754 -0.34026,-0.231245 -0.52653,-0.316224 -0.48172,-0.219742 -0.7648,-0.240568 -1.27375,-0.334042 -1.47136,-0.145701 -2.69684,-0.325688 -4.21176,-0.263897 -2.30644,0.09404 -1.09643,0.216816 -3.61482,0.563088 -0.81062,0.111394 -1.63068,0.138032 -2.44604,0.206948 -0.43684,0.143884 0.83417,4.005055 1.27101,3.861251 z"
       inkscape:export-filename="C:\Users\damiano\OneDrive\Desktop\batz.defi-logo.png"
       inkscape:export-xdpi="74.158302"
       inkscape:export-ydpi="74.158302" />
    <g
       id="g6857"
       transform="matrix(2.0180181,0,0,2.0180181,47.562156,-130.9053)"
       inkscape:export-filename="C:\Users\damiano\OneDrive\Desktop\batz.defi-logo.png"
       inkscape:export-xdpi="74.158302"
       inkscape:export-ydpi="74.158302">
      <path
         style="fill:#b00080;fill-opacity:1;fill-rule:nonzero;stroke:none;stroke-width:4.13094;stroke-linecap:butt;stroke-linejoin:round;stroke-miterlimit:4;stroke-dasharray:4.13094, 4.13094;stroke-dashoffset:0;stroke-opacity:1"
         id="path6382"
         d="m 34.34444,91.440729 c 1.082143,-0.277408 1.142042,-0.348313 2.176198,-0.428363 0.143642,-0.01111 0.509879,-0.111596 0.432104,0.0097 -0.106902,0.166687 -2.240756,-0.0451 0.376166,0.112818 0.295958,0.0095 0.573998,-0.112972 0.86495,-0.135906 0.101258,-0.008 0.202858,0.02408 0.304218,0.01749 0.08694,-0.0057 0.170301,-0.03694 0.255762,-0.05389 0.02199,-0.0044 0.08877,-0.01244 0.06649,-0.01 -0.231468,0.02514 -0.462733,0.05212 -0.6941,0.07818 0.05491,0.0011 0.109833,0.0043 0.16474,0.0029 0.174125,-0.0043 0.348057,-0.01482 0.522158,-0.02003 0.03264,-0.0011 0.0658,-0.0043 0.09794,0.0016 0.01884,0.0034 0.05498,0.04411 0.05149,0.02529 -0.462632,-2.495101 -0.04635,-3.097975 -0.537869,-2.345635 0.04176,0.727088 0.08353,1.454177 0.125294,2.181265 0.02969,-0.113543 0.025,-0.24229 0.08907,-0.34063 0.08615,-0.13226 0.229645,-0.216617 0.344466,-0.324927 0.04008,0.03579 0.356394,-0.318484 0.316312,-0.354272 v 0 c -0.04647,-0.229671 -0.05687,-0.469709 -0.139419,-0.689012 -0.209262,-0.555934 -2.337104,-2.576255 -0.26379,1.762414 -0.577294,0.630057 -0.0072,0.02681 -0.388866,-2.35009 -0.0016,-0.0097 -0.01659,0.01069 -0.02543,0.01503 -0.02395,0.01183 -0.09944,0.03195 -0.07278,0.03351 0.0887,0.0052 0.395187,-0.02753 0.265801,-0.02008 -0.266094,0.02122 -0.53299,0.03404 -0.79828,0.06367 -0.0706,0.0079 -0.0089,0.02865 -0.04455,0.03998 -0.08147,0.0259 -0.161904,0.05811 -0.246372,0.07131 -0.124738,0.0195 -0.49721,0.0292 -0.645104,0.03426 0.150442,0.02487 0.300947,0.09985 0.451326,0.0746 0.100589,-0.01688 -0.186666,-0.09639 -0.288512,-0.101933 -0.253005,-0.01378 -0.508569,0.0052 -0.758815,0.04489 -0.175186,0.02781 -0.338166,0.107379 -0.508653,0.156337 -1.261684,0.362315 -0.800611,0.23967 -2.245736,0.48528 -0.222247,0.08528 0.531524,2.049682 0.753772,1.964404 z" />
      <path
         style="fill:#b00080;fill-opacity:1;fill-rule:nonzero;stroke:none;stroke-width:4.13094;stroke-linecap:butt;stroke-linejoin:round;stroke-miterlimit:4;stroke-dasharray:4.13094, 4.13094;stroke-dashoffset:0;stroke-opacity:1"
         id="path6384"
         d="m 36.288461,91.137244 c 0.299127,1.557721 0.143446,3.13572 0.135329,4.706924 -0.08751,0.95159 -0.06538,1.909178 -0.06798,2.863715 -0.0019,0.660808 0.03802,0.373854 -0.07186,0.870813 0.0033,0.657934 0.08257,1.319914 0.04081,1.977824 -0.01204,0.18986 -0.04769,0.37758 -0.0643,0.5671 -0.06026,0.2433 0.08034,0.70095 -0.02469,0.88577 2.154851,-0.096 2.858505,0.16541 1.56396,-0.48438 0.0172,-0.0845 -0.729618,-0.23657 -0.746824,-0.15208 v 0 c -1.258287,0.85129 -1.207669,0.52787 1.418048,0.63703 -0.112504,-0.21267 0.09149,-0.64662 -0.01503,-0.89021 -0.08714,-0.509 -0.08117,-1.15247 -0.06303,-1.66412 0.0396,-1.116827 0.06075,0.0312 0.03185,-0.885718 -0.11807,-1.226545 -0.07185,-2.461501 -0.09692,-3.691642 0.0033,-0.254698 0.0051,-0.509423 0.01,-0.764095 0.0044,-0.231659 0.03293,-0.463653 0.01796,-0.694873 -0.01492,-0.230629 -0.07836,-0.455691 -0.107191,-0.684998 -0.112424,-0.894273 -0.153738,-1.795222 -0.166618,-2.695861 -0.01119,-0.202914 -1.804699,-0.104113 -1.793521,0.0988 z" />
      <path
         style="fill:#b00080;fill-opacity:1;fill-rule:nonzero;stroke:none;stroke-width:4.13094;stroke-linecap:butt;stroke-linejoin:round;stroke-miterlimit:4;stroke-dasharray:4.13094, 4.13094;stroke-dashoffset:0;stroke-opacity:1"
         id="path6388"
         d="m 38.854358,90.07187 c 0.182415,-0.0048 0.364808,-0.0105 0.547241,-0.0145 0.121488,-0.0027 0.242996,-0.0048 0.364511,-0.0055 1.113594,-0.0062 -3.178236,0.273666 0.143423,-1.962963 1.543809,-1.039518 0.45304,1.3515 0.217826,1.872311 -0.01799,0.03013 0.08174,0.0472 0.07459,0.02225 -0.198538,-0.692881 -0.427442,-1.376945 -0.662654,-2.05825 -0.105749,-0.30631 -0.345271,2.127491 0.577461,2.098527 -0.66235,-2.44929 -0.344287,-2.769745 -0.928566,-1.075941 -0.05361,0.106553 0.888193,0.580406 0.941803,0.473853 v 0 c -0.03991,0.186798 -0.09187,0.371424 -0.119719,0.560398 -0.0028,0.01918 0.01984,0.03334 0.02977,0.05002 -0.147768,-0.708189 -0.295535,-1.416378 -0.443302,-2.124568 -0.480843,0.567254 -0.03399,0.03 0.455144,2.124792 0.0021,0.0093 0.01725,-0.01495 0.01508,-0.02421 -0.161121,-0.690901 -0.331529,-1.379619 -0.503005,-2.068023 -0.0016,-0.0064 -0.0051,0.01209 -0.0076,0.01812 -0.06627,0.01511 -0.132543,0.03023 -0.198813,0.04534 -0.09706,0.03553 -0.280924,0.0037 -0.291179,0.106585 -0.06269,0.628626 -0.537866,1.944449 0.09178,1.893012 0.639027,-0.0522 0.122211,-1.276483 0.178917,-1.915126 0.0019,-0.0223 0.0064,0.05799 -0.01469,0.06555 -0.09031,0.03239 -0.188915,0.03794 -0.284784,0.04186 -0.172622,0.0071 -0.345477,-0.006 -0.518215,-0.009 -0.213321,0.0379 0.12166,1.923399 0.334981,1.8855 z" />
    </g>
    <path
       style="fill:#b00080;fill-opacity:1;fill-rule:nonzero;stroke:none;stroke-width:8.33631;stroke-linecap:butt;stroke-linejoin:round;stroke-miterlimit:4;stroke-dasharray:8.33631, 8.33631;stroke-dashoffset:0;stroke-opacity:1"
       id="path6507"
       d="m 117.40175,82.20645 c -0.0455,0.538973 -0.12599,1.591813 -0.20156,2.183375 -0.0217,0.170119 -0.0879,0.335778 -0.0867,0.50735 0.001,0.174155 0.14332,0.786684 0.17967,0.979061 0.20888,0.67872 0.0568,1.392433 0.11018,2.087216 0.0312,0.406106 0.0882,0.518046 0.20548,0.892933 -0.11698,1.720764 0.27721,1.337986 3.3263,0.745416 0.21907,-0.04258 -0.30589,-0.325123 -0.45409,-0.491993 -0.14441,-0.162653 -0.28241,-0.330774 -0.42361,-0.49615 -0.002,-0.162652 -1.43865,-0.150343 -1.43726,0.01211 v 0 c -0.14475,0.140252 -0.24951,0.340117 -0.43423,0.420757 -0.14869,0.06498 -0.6484,-0.02724 -0.48637,-0.01816 4.25599,0.220024 3.31638,1.185182 3.20351,-0.541959 -0.017,-0.170725 -0.0337,-0.341288 -0.0506,-0.511931 -0.0287,-0.101507 -0.0708,-0.199986 -0.0861,-0.304358 -0.11309,-0.771569 -0.0406,-1.560674 -0.11404,-2.336501 -0.0405,-0.221841 -0.0852,-0.442935 -0.12165,-0.665482 -0.005,-0.03007 0.0361,0.05832 0.027,0.08738 -0.0135,0.04379 -0.059,0.142068 -0.0873,0.106148 -0.0729,-0.09283 -0.0837,-0.223153 -0.0968,-0.3404 -0.0989,-0.886031 -0.004,-1.124217 0.11061,-2.087902 0.0256,-0.348754 -3.0569,-0.575115 -3.08251,-0.226361 z"
       inkscape:export-filename="C:\Users\damiano\OneDrive\Desktop\batz.defi-logo.png"
       inkscape:export-xdpi="74.158302"
       inkscape:export-ydpi="74.158302" />
    <path
       style="fill:#b00080;fill-opacity:1;fill-rule:nonzero;stroke:none;stroke-width:8.33631;stroke-linecap:butt;stroke-linejoin:round;stroke-miterlimit:4;stroke-dasharray:8.33631, 8.33631;stroke-dashoffset:0;stroke-opacity:1"
       id="path6509"
       d="m 119.41747,82.499971 c 0.47619,0.03471 2.29862,0.0563 2.65354,0.645483 0.028,0.04662 -0.18671,-0.06801 -0.16195,-0.02018 0.1141,0.223173 0.73565,0.711977 0.87433,0.829749 0.38986,0.418637 0.94431,0.676177 1.29411,1.134751 0.17476,0.229187 0.27451,0.506987 0.40562,0.763679 -0.0684,0.167092 0.33052,0.478149 0.23861,0.710484 -0.0141,0.03673 -0.0876,-0.06135 -0.11401,-0.03209 -0.004,0.004 -0.11947,0.644777 -0.12351,0.680799 -0.10433,0.35733 0.1009,0.757281 0.0182,1.111948 -0.008,0.03168 -0.0591,-0.03935 -0.0672,-0.07083 -0.021,-0.08213 0.0555,-0.207169 -0.0161,-0.253584 -0.0733,-0.04803 -0.16709,0.05287 -0.25049,0.07931 -0.28053,0.187071 -0.50612,0.363829 -0.83821,0.465456 -0.16548,0.05065 -0.34403,0.04359 -0.51319,0.08052 -0.6249,0.136216 -1.23396,0.367219 -1.87903,0.410929 -0.30816,0.02099 -0.61609,-0.0452 -0.92413,-0.06781 0.78229,-0.126328 0.72083,-0.236189 -0.94261,-0.177788 -0.26577,0.01009 -0.51411,0.141262 -0.77716,0.180411 -1.55689,0.906534 2.05328,5.054671 1.56182,3.473615 -0.1789,-0.575539 -0.40726,-1.13453 -0.61088,-1.701775 -0.004,-0.01211 -0.10847,0.02361 -0.10446,0.03532 v 0 c -0.13379,-0.430222 -0.25583,-0.864257 -0.40139,-1.290644 -0.0398,-0.116641 -0.19821,-0.451592 -0.15405,-0.336424 1.45209,3.78667 2.48419,2.878542 1.35805,3.81242 0.027,-0.004 0.1,-0.03471 0.081,-0.01413 -0.0335,0.03491 -0.0811,0.06619 -0.12946,0.06538 -0.31125,-0.0061 -0.61962,-0.06175 -0.93008,-0.08476 -0.093,-0.0061 0.18459,0.02745 0.27744,0.03632 0.79693,0.07628 0.59725,0.02684 1.74656,-0.06397 2.1787,-0.382556 4.39527,-0.448182 6.04126,-2.13472 0.8331,-0.835016 1.25771,-1.329693 1.36509,-2.565386 0.0101,-0.107358 -0.041,-0.213344 -0.0369,-0.320965 0.0121,-0.355656 0.13743,-0.161442 -0.0141,-0.342095 0.11906,-0.29015 0.0545,-0.07588 0.0676,-0.5421 0.0274,-0.975853 -0.11785,-1.852904 -0.58323,-2.730136 -0.27643,-0.451391 -0.50713,-0.932385 -0.81602,-1.362223 -0.1233,-0.171532 -0.28378,-0.312793 -0.42562,-0.46923 -0.37172,-0.40996 -0.72566,-0.803675 -1.24573,-1.028442 -0.50769,-0.348875 -0.78555,-0.89711 -1.33078,-1.223424 -1.05306,-0.630267 -2.81824,-0.591824 -3.95467,-0.971494 -0.372,-0.07224 -1.01009,3.215853 -0.63808,3.288058 z"
       inkscape:export-filename="C:\Users\damiano\OneDrive\Desktop\batz.defi-logo.png"
       inkscape:export-xdpi="74.158302"
       inkscape:export-ydpi="74.158302" />
    <g
       id="g6862"
       transform="matrix(2.0180181,0,0,2.0180181,48.537057,-151.93456)"
       inkscape:export-filename="C:\Users\damiano\OneDrive\Desktop\batz.defi-logo.png"
       inkscape:export-xdpi="74.158302"
       inkscape:export-ydpi="74.158302">
      <path
         style="fill:#b00080;fill-opacity:1;fill-rule:nonzero;stroke:none;stroke-width:4.13094;stroke-linecap:butt;stroke-linejoin:round;stroke-miterlimit:4;stroke-dasharray:4.13094, 4.13094;stroke-dashoffset:0;stroke-opacity:1"
         id="path6511"
         d="m 39.998178,117.641 c 0.02487,0.14504 0.216313,1.24699 0.241612,1.44536 0.01606,0.12584 0.02,0.25298 0.02553,0.37973 0.0026,0.0575 0.0011,0.23003 -0.0013,0.17255 -0.0081,-0.19544 0.156978,-0.67843 -0.01574,-0.58662 -0.187775,0.0998 -0.04864,0.42251 -0.07295,0.63377 0.08361,0.3812 0.08507,0.59954 0.149971,0.93066 0.01611,0.78395 0.03516,0.10869 1.630545,0.70436 0.05191,0.0194 -0.07135,0.0956 -0.124949,0.10963 -0.223044,0.0585 -0.456076,0.0683 -0.684115,0.10248 0.945801,-0.0162 1.867186,-0.26157 2.805666,-0.35406 0.123938,-0.0122 0.263014,-0.0803 0.372978,-0.0218 0.08095,0.043 -0.175395,0.0535 -0.263092,0.0802 -0.175244,-0.54834 -0.312129,-1.11045 -0.525727,-1.64502 -0.01561,-0.0391 -0.119292,0.0364 -0.101769,0.0746 0.264231,0.57655 0.544203,1.1518 0.903377,1.67451 0.04052,0.059 0.1371,-0.0411 0.20614,-0.0598 0.05427,-0.0148 0.109458,-0.0259 0.163989,-0.0396 -0.660837,-1.65391 -0.660628,-2.08925 -0.584007,-1.16814 -0.05712,-0.0172 -0.209092,0.4877 -0.151969,0.50489 v 0 c 0.947452,0.75711 0.584425,0.63055 0.06151,-1.15171 2.38e-4,0.004 5.29e-4,0.007 7.94e-4,0.0105 -0.02371,0.005 -0.04742,0.0102 -0.07113,0.0153 -0.0074,-5.3e-4 -0.01027,-0.0276 -0.0071,-0.021 1.039304,2.18742 0.892199,2.31598 0.434864,-0.0828 -0.527175,0.0704 -1.033783,0.18701 -1.557258,0.28062 -0.118349,0.0212 -0.693629,0.14786 -0.929759,0.13537 -0.08935,-0.005 -0.176128,-0.0316 -0.264192,-0.0474 -0.254826,0.0363 -0.514186,0.0489 -0.764471,0.10903 -0.993574,0.23861 1.747657,1.24006 1.272981,0.50501 0.04852,0.0303 0.01101,0.0126 0.0016,-0.10066 -0.01863,-0.22592 -0.06751,-0.41819 -0.1202,-0.6383 -0.03235,0.0769 -0.09486,0.31401 -0.09707,0.23063 -0.0068,-0.25881 0.0785,-0.51341 0.08276,-0.77227 5.29e-4,-0.0248 -0.05474,0.0432 -0.07045,0.0241 -0.06319,-0.0773 -0.100269,-0.17444 -0.130352,-0.26962 -0.14564,-0.46084 -0.182621,-0.87074 -0.253225,-1.35192 -0.02119,-0.17688 -1.584645,0.0105 -1.563441,0.1874 z" />
      <path
         style="fill:#b00080;fill-opacity:1;fill-rule:nonzero;stroke:none;stroke-width:4.13094;stroke-linecap:butt;stroke-linejoin:round;stroke-miterlimit:4;stroke-dasharray:4.13094, 4.13094;stroke-dashoffset:0;stroke-opacity:1"
         id="path6513"
         d="m 41.393537,119.31807 c 0.77937,-0.15348 0.842928,-0.1971 1.601153,-0.2357 0.14301,-0.007 0.286377,0.003 0.429527,0.007 0.06522,0.002 0.140751,0.0439 0.195527,0.009 0.228764,-0.14797 0.356624,-0.45824 0.618096,-0.53479 0.206915,-0.0606 -0.288597,0.32038 -0.432895,0.48057 -0.0056,0.006 -0.04604,0.0423 0.0092,0.044 0.0078,2.5e-4 0.215085,-0.0314 0.242041,-0.0559 0.01995,-0.0181 0.02834,-0.0509 0.02336,-0.0774 -0.07483,-0.39814 -0.174006,-0.79132 -0.261009,-1.18699 -0.06896,0.0122 0.03904,0.62176 0.108003,0.60954 v 0 c -0.130985,-1.15744 0.09772,-1.54688 -0.977162,-1.21739 -0.210794,0.17926 -0.456449,0.3242 -0.632381,0.53778 -0.159837,0.19404 0.385326,-0.32313 0.583245,-0.47814 0.01508,-0.0118 -0.01521,0.0397 -0.03286,0.0471 -0.122415,0.0514 -0.249034,0.0941 -0.37804,0.12543 -0.497543,0.12105 -1.061537,0.19306 -1.563931,0.2687 -0.187534,0.053 0.280636,1.71057 0.468173,1.6576 z" />
      <path
         style="fill:#b00080;fill-opacity:1;fill-rule:nonzero;stroke:none;stroke-width:4.13094;stroke-linecap:butt;stroke-linejoin:round;stroke-miterlimit:4;stroke-dasharray:4.13094, 4.13094;stroke-dashoffset:0;stroke-opacity:1"
         id="path6515"
         d="m 40.465059,117.09463 c 0.933394,-0.38892 0.571076,-0.29819 1.399643,-0.461 0.13023,-0.0256 0.259432,-0.0619 0.391871,-0.0705 0.05844,-0.004 0.228296,0.0162 0.172414,0.0338 -0.311082,0.0975 -0.717659,0.022 -0.257123,0.0868 0.564605,0.1269 1.081326,-0.0488 1.634054,-0.10314 0.177837,-0.0175 0.132847,-0.0533 0.193119,0.0109 -1.103019,-0.6392 -1.232085,-0.43177 -0.209608,-0.70231 0.05552,0.0257 0.282493,-0.46504 0.226976,-0.49071 v 0 c 0.839538,-0.42278 0.667702,-0.15684 -0.450586,-0.83621 -0.365379,0.0367 0.09296,-0.0176 -0.310092,0.0602 -0.110109,0.0213 -0.455572,0.0569 -0.550037,0.0678 -0.0645,0.007 -0.239924,-0.0219 -0.193376,0.0234 0.06251,0.0608 0.172337,0.0266 0.258506,0.04 -0.99518,-0.24926 -1.439219,0.18097 -2.275475,0.54285 -0.278876,0.12069 -0.565819,0.2218 -0.84873,0.3327 -0.165791,0.0926 0.652653,1.55799 0.818444,1.46539 z" />
    </g>
    <g
       id="g6867"
       transform="matrix(2.0180181,0,0,2.0180181,48.234392,-135.34269)"
       inkscape:export-filename="C:\Users\damiano\OneDrive\Desktop\batz.defi-logo.png"
       inkscape:export-xdpi="74.158302"
       inkscape:export-ydpi="74.158302">
      <path
         style="fill:#b00080;fill-opacity:1;fill-rule:nonzero;stroke:none;stroke-width:4.13094;stroke-linecap:butt;stroke-linejoin:round;stroke-miterlimit:4;stroke-dasharray:4.13094, 4.13094;stroke-dashoffset:0;stroke-opacity:1"
         id="path6517"
         d="m 45.445128,108.74593 c 0.100274,0.75718 -0.09922,1.54173 0.132807,2.28449 0.02878,0.0921 0.09593,0.16888 0.12663,0.26038 0.117787,0.34161 0.04626,0.72045 0.167706,1.06232 0.03134,0.0882 0.150741,0.33884 0.134236,0.24669 -0.02817,-0.15731 -0.113548,-0.29878 -0.170322,-0.44817 0.0029,-0.0457 0.0081,-0.18276 0.0088,-0.137 0.0031,0.22637 -0.01844,0.1116 -0.02371,0.34185 -0.0011,0.0455 -0.01725,0.1738 0.0083,0.13616 0.465349,-0.68668 -0.781222,-0.25133 1.25169,-0.38992 l -0.40909,-0.2391 c -0.0098,-0.0298 -0.272921,0.0567 -0.263134,0.0865 v 0 c -0.05285,0.15674 -0.705738,0.90834 -0.758589,1.06508 0.387554,0.63014 1.474226,0.067 1.940732,0.0889 0.09179,0.004 0.188846,-1.0351 0.209534,-1.08495 -0.06799,-0.16941 -0.142933,-0.3362 -0.203954,-0.50824 -0.01987,-0.056 0.05347,0.10623 0.08021,0.15934 -0.01378,0.0143 -0.02747,0.057 -0.04139,0.0428 -0.155768,-0.1584 -0.04086,-0.75001 -0.166992,-0.92145 -0.01127,-0.0447 -0.02432,-0.34948 -0.152858,-0.41395 -0.01781,-0.009 -0.05053,0.0197 -0.0597,0.002 -0.228431,-0.4401 -0.12441,-1.17808 -0.146744,-1.63381 0,-0.18828 -1.66412,-0.18828 -1.66412,0 z"
         sodipodi:nodetypes="cscssccccccsscccscccccccc" />
      <path
         style="fill:#b00080;fill-opacity:1;fill-rule:nonzero;stroke:none;stroke-width:4.13094;stroke-linecap:butt;stroke-linejoin:round;stroke-miterlimit:4;stroke-dasharray:4.13094, 4.13094;stroke-dashoffset:0;stroke-opacity:1"
         id="path6519"
         d="m 46.427171,108.75574 c 0.671793,-0.18131 0.923782,-0.29967 1.588818,-0.31429 0.118271,-0.003 0.23359,0.0386 0.35129,0.0505 0.196106,0.0198 0.396941,0.0141 0.592415,-0.005 0.587436,-0.19297 0.385625,0.13644 0.150487,-0.99455 0.0159,0.005 0.06056,-0.13555 0.04465,-0.1406 v 0 c -0.206793,-0.33285 -0.413584,-0.6657 -0.620377,-0.99854 -0.175609,0.0645 -0.110389,0.0821 -0.196971,0.0477 -0.165526,0.0546 -0.274548,0.0521 -0.461778,0.0855 -0.706284,0.12589 -1.370054,0.42427 -2.096375,0.45601 -0.205174,0.0733 -0.539334,1.87672 -0.33416,1.80343 z"
         sodipodi:nodetypes="cccccsscccccc" />
      <path
         style="fill:#b00080;fill-opacity:1;fill-rule:nonzero;stroke:none;stroke-width:4.13094;stroke-linecap:butt;stroke-linejoin:round;stroke-miterlimit:4;stroke-dasharray:4.13094, 4.13094;stroke-dashoffset:0;stroke-opacity:1"
         id="path6521"
         d="m 48.19504,111.13761 c 0.190606,2.6e-4 0.381379,-0.007 0.57182,0.001 0.117486,0.005 0.236035,0.0116 0.350796,0.0372 0.03005,0.007 0.07332,0.0881 0.07244,0.0573 -0.0854,-3.00801 0.431313,-1.55883 -0.361815,-1.74802 -0.0962,-0.61385 -0.08792,-0.56767 0.07774,1.77529 0.0013,0.0174 0.04705,0.0406 0.04703,0.0231 -7.94e-4,-0.62787 0.0028,-1.25727 -0.04957,-1.88295 -0.003,-0.0358 -0.07195,0.002 -0.107902,7.9e-4 -0.03653,-7.9e-4 -0.07295,-0.004 -0.109427,-0.006 -0.09607,-0.0455 -0.114776,-0.0243 -0.240607,-0.0186 -0.09637,0.004 -0.192632,-0.0116 -0.289075,-0.0138 -0.117954,0.0701 -0.231797,-0.0158 -0.348634,-0.006 -0.354007,0.0286 0.431607,0.10561 -0.306742,-0.007 -0.08833,0.002 -0.177348,0.0182 -0.264985,0.007 -0.814237,-0.10461 -0.977295,-1.49641 -0.683086,1.89497 0.03602,0.41525 0.881176,-0.22986 0.901364,-0.24326 -0.471887,-2.0042 0.06157,-1.76349 -1.104392,-1.74163 -0.06677,0.001 -0.2668,0.008 -0.200075,0.0103 0.09409,0.004 0.188288,-0.004 0.282435,-0.006 -0.07282,-0.0322 -0.121251,0.0326 -0.20478,0.0376 -0.11893,0.007 -0.244263,-0.0246 -0.357195,0.0134 -0.0471,0.0159 -0.04449,0.0891 -0.07149,0.1308 -0.115216,0.17805 -0.236572,0.35205 -0.354859,0.52807 0.01876,0.13654 0.03749,0.27309 0.05623,0.40963 -0.02679,0.0384 0.312687,0.27517 0.339474,0.23677 v 0 c 0.09804,0.0259 0.196085,0.0518 0.294129,0.0777 -0.02712,0.10826 -0.08797,0.21337 -0.08137,0.32478 0.003,0.0499 0.139057,0.0669 0.106855,0.10506 -0.05165,0.0613 -0.160642,0.0193 -0.235604,0.0476 -0.02265,0.009 0.04697,0.0131 0.07113,0.0145 0.119213,0.007 5.29e-4,-0.0348 0.125174,0.0235 0.151593,-0.004 0.30335,0.002 0.454909,-0.003 0.03904,-10e-4 0.155144,-0.008 0.116464,-0.0129 -0.06448,-0.009 -0.131029,-0.008 -0.195328,0.002 -0.01027,0.002 0.01074,0.0178 0.01611,0.0267 -0.119608,-0.59395 -0.239215,-1.18791 -0.358823,-1.78186 0.0075,-0.004 0.818401,-0.45338 0.815237,-0.1931 -0.03102,2.55246 -1.218546,1.90408 -0.02832,1.99185 0.170448,0.0563 0.265766,0.0954 0.456698,0.11668 0.14047,0.0156 0.30123,-0.0683 0.443047,-0.005 0.132607,8e-4 0.279715,-0.0318 0.410618,-0.0154 0.0195,0.002 0.03352,0.025 0.05318,0.0255 0.02984,7.9e-4 -0.03249,-0.1518 0.07672,-0.0462 0.0379,-0.007 0.07545,-0.0161 0.113691,-0.0206 0.03603,-0.004 0.105513,0.0304 0.108686,-0.006 0.05456,-0.62154 0.0507,-1.24703 0.05606,-1.87093 1.3e-4,-0.015 -0.03916,0.005 -0.04015,0.0204 -0.129024,1.9585 -0.288721,2.37924 -0.06538,1.77268 0.804103,0.0451 0.277711,0.26113 0.358354,-1.7438 0.0013,-0.0308 -0.02141,0.069 -0.05116,0.0771 -0.109834,0.0299 -0.226393,0.03 -0.340227,0.0295 -0.19262,-8e-4 -0.384604,-0.0222 -0.576906,-0.0333 -0.179639,0.0285 0.07184,1.61624 0.251481,1.58779 z" />
    </g>
    <g
       id="g6871"
       transform="matrix(2.0180181,0,0,2.0180181,36.718035,-135.90722)"
       inkscape:export-filename="C:\Users\damiano\OneDrive\Desktop\batz.defi-logo.png"
       inkscape:export-xdpi="74.158302"
       inkscape:export-ydpi="74.158302">
      <path
         style="fill:#b00080;fill-opacity:1;fill-rule:nonzero;stroke:none;stroke-width:4.13094;stroke-linecap:butt;stroke-linejoin:round;stroke-miterlimit:4;stroke-dasharray:4.13094, 4.13094;stroke-dashoffset:0;stroke-opacity:1"
         id="path6505"
         d="m 56.378604,109.13472 c -0.01429,0.90647 0.02911,0.55255 -0.103952,1.32435 -0.01506,0.0873 -0.06225,0.1736 -0.04897,0.26118 0.02987,0.19695 0.124828,0.37861 0.175247,0.57133 0.0052,0.0201 -0.02982,-0.03 -0.03855,-0.0489 -0.04512,-0.0972 -0.08144,-0.19823 -0.122166,-0.29734 -0.0021,0.30622 -0.01492,0.619 -0.01574,0.92783 -0.04787,0.10273 0.03009,0.40525 -0.0265,0.48986 1.404175,-1.19594 1.222576,-1.21762 0.147651,0.52842 0.108738,0.16153 1.536409,-0.79959 1.42767,-0.96111 v 0 c -1.184703,1.65598 -1.333357,1.61472 0.146108,0.43915 0.03491,-0.16793 -0.06098,-0.34275 -0.02011,-0.51805 -2.64e-4,-0.3335 -0.03087,-0.66519 0.02604,-0.99805 -0.04771,-0.18387 -0.08126,-0.37201 -0.143137,-0.55161 -0.0149,-0.0432 -0.09202,-0.15322 -0.0842,-0.10819 0.03225,0.18567 0.106619,0.36152 0.15961,0.54237 0.01963,0.067 -0.05218,-0.13143 -0.05955,-0.20088 -0.05829,-0.5494 5.29e-4,-0.71005 0.07162,-1.29917 0.01146,-0.1687 -1.479611,-0.26994 -1.491065,-0.10124 z" />
      <path
         style="fill:#b00080;fill-opacity:1;fill-rule:nonzero;stroke:none;stroke-width:4.13094;stroke-linecap:butt;stroke-linejoin:round;stroke-miterlimit:4;stroke-dasharray:4.13094, 4.13094;stroke-dashoffset:0;stroke-opacity:1"
         id="path6523"
         d="m 57.555693,110.01693 c -0.09651,-0.47035 -0.114943,-0.93457 -0.01418,-1.40297 0.0341,-0.15854 0.05732,-0.18252 0.06394,-0.36767 0.024,-0.32931 0.01447,-0.005 -0.02955,-0.40781 -0.0075,-0.0686 -0.01027,-0.13798 -0.0065,-0.20685 0.0019,-0.035 0.05871,-0.10253 0.02363,-0.10254 -1.478497,-5.3e-4 -1.324991,-0.3632 -1.5182,0.15445 0.338791,0.39523 0.03551,0.0498 1.511813,-0.0872 0.01463,-0.001 0.03633,-0.0402 0.02175,-0.0384 -1.812454,0.23273 -1.450801,-0.18266 -1.466993,0.82924 -0.01146,0.29132 0.04283,0.5807 0.0406,0.87152 -0.0011,0.14934 -0.03521,0.29729 -0.03534,0.44663 -2.65e-4,0.41088 0.06158,0.8301 0.09355,1.24001 -0.05294,0.2229 2.65e-4,0.43581 0.0027,0.65566 -0.291044,0.60971 1.3622,0.7511 1.479442,0.15828 -0.498086,0.0114 -0.996175,0.0228 -1.494264,0.0342 0.01992,0.0927 -0.03449,0.28838 0.05978,0.27812 0.48987,-0.0533 1.003488,-0.16249 1.411822,-0.43831 0.138668,-0.0937 -0.01183,-0.33449 -0.02035,-0.50162 -0.130532,-2.55978 0.06517,1.57328 -0.07448,-1.42593 -0.0088,-1.17105 -0.02842,-0.20773 0.0448,-1.10083 0.01008,-0.12292 -0.01132,-0.24877 0.01244,-0.3698 0.0052,-0.0263 0.01138,0.0534 0.0083,0.08 -0.0034,-0.0615 -0.0068,-0.12311 -0.01024,-0.18466 -0.01778,-0.0683 -0.04765,-0.13451 -0.05335,-0.20484 -0.0045,-0.0553 0.02564,-0.10938 0.02342,-0.16483 -0.0021,-0.0541 0.01773,-0.15824 -0.03641,-0.15829 -1.55144,-0.001 -1.622386,-0.1446 -1.2104,0.28642 0.100668,0.0395 0.201337,0.079 0.302006,0.11844 -0.0079,0.0359 0.309721,0.10574 0.317619,0.0698 v 0 c 0.128304,-0.064 0.256609,-0.12805 0.38491,-0.19208 0.03718,-2e-4 0.148733,-0.001 0.111551,-5.3e-4 -0.439957,0.004 -0.879909,0.0138 -1.319876,0.0115 -0.0077,-4e-5 0.01368,-0.026 0.0141,-0.0183 0.0033,0.0573 -0.0088,0.1148 -0.0053,0.17208 0.0087,0.14219 0.06557,0.18781 0.01304,0.14145 1.4e-4,0.0819 -0.01426,0.16595 0.0042,0.24579 0.01667,0.0723 0.1167,0.11393 0.0945,0.20166 0.0705,0.32624 0.06836,0.76188 0.08121,1.07552 -0.02794,0.84082 -0.01222,0.63695 -0.06822,1.40328 -0.0105,0.14357 -0.170998,0.38393 -0.03477,0.43046 0.443145,0.15136 0.944287,-0.0501 1.404342,0.0373 0.07688,0.0146 0.015,0.15579 0.02249,0.23369 -0.498854,-0.031 -0.997707,-0.062 -1.496558,-0.093 0.279797,0.45624 0.02596,0.0593 1.520788,0.15534 0.01376,7.9e-4 -0.02265,-0.0188 -0.02596,-0.0322 -0.02336,-0.0945 0.07975,-0.19412 0.0029,-0.28679 -0.01566,-0.25415 0.01005,-0.5063 -0.07019,-0.75633 -0.03508,-0.21121 -0.09817,-0.41827 -0.117126,-0.63152 -0.01381,-0.15549 -7.93e-4,-0.31221 -7.93e-4,-0.46831 -6.7e-5,-0.43986 -0.0045,-0.88038 0.02548,-1.31951 0.0088,-0.11294 0.02096,-0.22567 0.02627,-0.33883 0.0043,-0.0926 0.0926,-0.25574 0.0026,-0.27795 -4.191749,-1.03485 0.283125,0.83427 0.03184,-0.12661 0.0057,-0.55997 0.02468,-0.18089 -1.489282,-0.0933 -0.07515,0.004 -2.64e-4,0.1273 0.0087,0.32194 0.0047,0.1004 -0.0085,0.20261 -0.01976,0.30264 0.03869,0.16744 0.0055,-0.0228 -0.0031,0.20028 -0.0029,0.074 0.0082,0.14804 0.008,0.22213 -1.96e-4,0.11067 -0.0223,0.22202 -0.009,0.33189 0.242015,1.99708 -0.01881,-1.50098 0.154657,1.20919 0.01371,0.1472 1.314805,0.0262 1.30111,-0.12105 z" />
    </g>
    <path
       style="fill:#b00080;fill-opacity:1;fill-rule:nonzero;stroke:none;stroke-width:8.33631;stroke-linecap:butt;stroke-linejoin:round;stroke-miterlimit:4;stroke-dasharray:8.33631, 8.33631;stroke-dashoffset:0;stroke-opacity:1"
       id="path6772"
       d="m 148.69512,75.546163 c 0.11241,1.112312 0.0182,1.926925 0.78961,2.847282 0.59568,0.710888 1.46884,0.864943 2.33457,0.746586 0.3678,-0.05025 0.88022,-0.411817 1.21192,-0.626614 0.77349,0.110991 1.41693,-0.657995 1.54516,-1.369528 0.0367,-0.204143 -0.004,-0.414844 -0.006,-0.622276 0.0928,-1.285902 -0.94615,-2.103603 -2.01909,-2.58601 -0.30992,-0.139243 -0.62584,-0.283572 -0.96084,-0.340682 -0.36108,-0.06155 -0.73254,-0.0061 -1.09881,-0.01009 -0.31678,-0.104331 -0.52404,0.317818 -0.81731,0.326798 -0.0321,10e-4 -0.0234,-0.08536 0.006,-0.09626 0.11079,-0.03955 0.23361,-0.03047 0.35112,-0.03148 0.0954,-0.0011 -0.19414,5.25e-4 -0.28469,0.03088 -0.4126,0.137831 -0.8114,0.313923 -1.21712,0.470905 -0.10938,0.304317 -0.27597,0.593801 -0.32799,0.912971 -0.15842,0.971696 0.79758,2.138797 1.39128,2.793301 0.0202,0.04863 0.44895,-0.122898 0.42956,-0.171532 v 0 c 0.002,-0.751914 -0.0325,-0.492094 0.14105,-1.32834 0.0488,-0.234877 0.10373,-0.468483 0.16266,-0.701019 0.0182,-0.06882 0.12632,-0.24075 0.0662,-0.20271 -0.0952,0.06034 -0.12593,0.186868 -0.18889,0.280403 -0.29491,0.05085 -0.59834,0.06579 -0.88472,0.152562 -0.0799,0.02422 0.16346,0.03915 0.24689,0.04076 1.05211,0.02038 0.57075,0.06417 1.25105,-0.169715 0.24347,-0.08375 0.1679,0.02119 0.242,-0.137225 -0.0517,-0.04097 -0.21597,-0.09707 -0.15519,-0.123099 0.16064,-0.06861 0.35219,-0.07063 0.52301,-0.0339 0.21619,0.04621 0.8774,0.374585 0.98138,0.638218 0.0381,0.09686 0.0398,0.204567 0.0597,0.30686 0.0664,0.142876 0.20812,0.218975 0.18909,0.226745 -0.78877,0.32147 0.43185,-0.36841 -0.72643,0.345807 -0.19171,0.142473 -0.44667,0.230902 -0.56838,0.436457 -0.0337,0.05691 0.0733,0.182631 0.008,0.197968 -1.11302,0.267105 -1.26488,-1.268123 -1.23059,-1.939315 0.0299,-0.163662 -1.41608,-0.428002 -1.44599,-0.264401 z"
       inkscape:export-filename="C:\Users\damiano\OneDrive\Desktop\batz.defi-logo.png"
       inkscape:export-xdpi="74.158302"
       inkscape:export-ydpi="74.158302" />
  </g>
</svg>
